<svg xmlns="http://www.w3.org/2000/svg" width="20" height="20" viewBox="0 0 20 20">
    <defs>
        <filter id="4kubrdlmta">
            <feColorMatrix in="SourceGraphic" values="0 0 0 0 0.188235 0 0 0 0 0.188235 0 0 0 0 0.188235 0 0 0 1.000000 0"/>
        </filter>
    </defs>
    <g fill="none" fill-rule="evenodd" opacity=".5">
        <g>
            <g filter="url(#4kubrdlmta)" transform="translate(-32 -339) translate(32 339)">
                <path fill="#000" d="M16.25 8.75H15V10h1.25c1.035.001 1.874.84 1.875 1.875v2.5h1.25v-2.5c-.002-1.725-1.4-3.123-3.125-3.125zM15 2.5c1.036 0 1.875.84 1.875 1.875 0 1.036-.84 1.875-1.875 1.875-1.036 0-1.875-.84-1.875-1.875 0-1.036.84-1.875 1.875-1.875zm0-1.25c-1.726 0-3.125 1.4-3.125 3.125 0 1.726 1.4 3.125 3.125 3.125 1.726 0 3.125-1.4 3.125-3.125 0-.829-.33-1.624-.915-2.21-.586-.586-1.381-.915-2.21-.915zm-.625 17.5h-1.25V17.5c-.001-1.035-.84-1.874-1.875-1.875h-2.5c-1.035.001-1.874.84-1.875 1.875v1.25h-1.25V17.5c.002-1.725 1.4-3.123 3.125-3.125h2.5c1.725.002 3.123 1.4 3.125 3.125v1.25zM10 8.125c1.036 0 1.875.84 1.875 1.875 0 1.036-.84 1.875-1.875 1.875-1.036 0-1.875-.84-1.875-1.875 0-1.036.84-1.875 1.875-1.875zm0-1.25c-1.726 0-3.125 1.4-3.125 3.125 0 1.726 1.4 3.125 3.125 3.125 1.726 0 3.125-1.4 3.125-3.125 0-1.726-1.4-3.125-3.125-3.125zM5 8.75H3.75c-1.725.002-3.123 1.4-3.125 3.125v2.5h1.25v-2.5c.001-1.035.84-1.874 1.875-1.875H5V8.75zM5 2.5c1.036 0 1.875.84 1.875 1.875 0 1.036-.84 1.875-1.875 1.875-1.036 0-1.875-.84-1.875-1.875C3.125 3.339 3.965 2.5 5 2.5zm0-1.25c-1.726 0-3.125 1.4-3.125 3.125C1.875 6.101 3.275 7.5 5 7.5c1.726 0 3.125-1.4 3.125-3.125 0-.829-.33-1.624-.915-2.21C6.624 1.58 5.829 1.25 5 1.25z"/>
            </g>
        </g>
    </g>
</svg>
