<svg xmlns="http://www.w3.org/2000/svg" xmlns:xlink="http://www.w3.org/1999/xlink" width="244" height="50" viewBox="0 0 244 50">
    <defs>
        <linearGradient id="qso5yitzzb" x1="108.53%" x2="-14.116%" y1="130.602%" y2="-38.296%">
            <stop offset="0%" stop-color="#0049FF"/>
            <stop offset="100%" stop-color="#FFF"/>
        </linearGradient>
        <path id="vup8jbd54a" d="M4.026 0.028L5.591 1.596 1.674 5.516 0.106 3.948z"/>
    </defs>
    <g fill="none" fill-rule="evenodd">
        <g>
            <g>
                <path fill="#004AFF" d="M119.005 26.425c-2.157 2.157-4.947 2.148-6.835 1.42-2.333-.896-3.8-2.895-3.922-5.337-.009-.14-.012-.282-.012-.425 0-.143.003-.282.009-.42.126-2.447 1.59-4.442 3.922-5.338.696-.269 1.518-.439 2.382-.439 1.48 0 3.094.499 4.454 1.859l4.341 4.338-4.339 4.342zm12.175-4.342l-1.145-1.148-2.771-2.771-2.771-2.768-1.57-1.57c-3.377-3.375-8.265-4.4-12.749-2.673-4.369 1.682-7.227 5.602-7.463 10.234-.01.23-.017.463-.017.696 0 .236.006.469.017.704.236 4.63 3.097 8.55 7.466 10.23 1.442.556 2.925.825 4.383.825 3.086 0 6.071-1.21 8.365-3.5l2.659-2.656 1.68-1.683 3.92-3.92h-.004z" transform="translate(-730 -124) translate(730 124)"/>
                <path fill="#004AFF" d="M151.817 21.379c-.236-4.63-3.098-8.549-7.47-10.23-4.486-1.726-9.368-.698-12.744 2.676l-1.568 1.568-2.77 2.771-2.772 2.771-1.149 1.148 3.92 3.92 3.92-3.92 1.942-1.94 2.396-2.398c2.157-2.158 4.947-2.15 6.836-1.423 2.332.897 3.799 2.892 3.922 5.337.008.14.011.281.011.424 0 .143-.003.283-.01.425-.124 2.448-1.593 4.443-3.923 5.339-1.891.73-4.679.735-6.836-1.422l-2.774-2.774-3.917 3.92 2.772 2.77c2.29 2.294 5.278 3.504 8.365 3.504 1.458 0 2.938-.269 4.377-.823 4.372-1.683 7.233-5.602 7.472-10.229.01-.235.016-.471.016-.71 0-.235-.006-.469-.016-.704M147.566 49.897v-5.542c5.026 0 9.115-4.09 9.115-9.116V10.29h5.542v13.492c0 2.501 2.034 4.536 4.535 4.536 2.5 0 4.535-2.035 4.535-4.536V10.29h5.543v13.365c0 2.571 2.092 4.663 4.662 4.663h45.064c-6.996-5.172-11.54-13.478-11.54-22.825h5.542c0 12.586 10.239 22.825 22.824 22.825v5.542h-61.89c-2.908 0-5.536-1.223-7.398-3.182-1.84 1.958-4.45 3.182-7.342 3.182-1.63 0-3.171-.39-4.535-1.08v2.46c0 8.082-6.575 14.657-14.657 14.657" transform="translate(-730 -124) translate(730 124)"/>
                <path fill="#004AFF" d="M125.581 27.683L127.264 26.003 125.583 27.686zM131.18 22.083L131.183 22.083 127.264 26.002zM133.126 20.143L131.183 22.083 133.124 20.14zM140.595 7.71L146.41 7.71 146.41 2.168 140.595 2.168zM228.248 7.71L234.064 7.71 234.064 2.168 228.248 2.168zM51.485 7.71L57.3 7.71 57.3 2.168 51.485 2.168zM166.295 43.736L172.11 43.736 172.11 38.193 166.295 38.193zM133.241 7.71L139.057 7.71 139.057 2.168 133.241 2.168zM124.492 22.084L130.035 22.084 130.035 10.291 124.492 10.291zM62.033 33.79L67.575 33.79 67.575 0 62.033 0zM51.621 33.79L57.164 33.79 57.164 10.312 51.621 10.312zM0 33.885L5.543 33.885 5.543.784 0 .784zM46.75 33.79h-5.543V20.376c0-2.516-2.048-4.564-4.565-4.564-2.517 0-4.564 2.048-4.564 4.564V33.79h-5.543V0h5.543v11.36c1.371-.697 2.923-1.09 4.564-1.09 5.573 0 10.107 4.534 10.107 10.106V33.79z" transform="translate(-730 -124) translate(730 124)"/>
                <path fill="#004AFF" d="M73.841 28.412c-3.456 0-6.265-2.812-6.265-6.266 0-3.456 2.81-6.265 6.265-6.265 3.454 0 6.266 2.81 6.266 6.265 0 3.454-2.812 6.266-6.266 6.266m0-18.076c-2.3 0-4.448.66-6.265 1.803-3.328 2.092-5.543 5.795-5.543 10.007 0 4.21 2.215 7.913 5.543 10.007 1.817 1.14 3.966 1.8 6.265 1.8 6.51 0 11.808-5.297 11.808-11.807 0-6.512-5.298-11.81-11.808-11.81M87.609 23.325V33.79h5.543V23.325c0-4.106 3.34-7.446 7.445-7.446v-5.542c-7.161 0-12.988 5.827-12.988 12.988M21.667 10.716L11.651 18.708 21.661 26.7 21.661 33.789 5.543 20.925 2.767 18.708 5.543 16.491 21.667 3.622z" transform="translate(-730 -124) translate(730 124)"/>
                <g transform="translate(-730 -124) translate(730 124) translate(121.644 16.57)">
                    <mask id="ej3kh3w5zc" fill="#fff">
                        <use xlink:href="#vup8jbd54a"/>
                    </mask>
                    <path fill="url(#qso5yitzzb)" d="M4.026 0.028L5.591 1.596 1.674 5.516 0.106 3.948z" mask="url(#ej3kh3w5zc)"/>
                </g>
            </g>
        </g>
    </g>
</svg>
