<svg xmlns="http://www.w3.org/2000/svg" width="20" height="20" viewBox="0 0 20 20">
    <defs>
        <filter id="3kwvk199qa">
            <feColorMatrix in="SourceGraphic" values="0 0 0 0 0.000000 0 0 0 0 0.290196 0 0 0 0 1.000000 0 0 0 1.000000 0"/>
        </filter>
    </defs>
    <g fill="none" fill-rule="evenodd">
        <g>
            <g>
                <g>
                    <g filter="url(#3kwvk199qa)" transform="translate(-32 -443) translate(0 287) translate(0 52) translate(32 104)">
                        <path fill="#000" d="M16.875 5.625H15V3.75c0-.69-.56-1.25-1.25-1.25h-7.5C5.56 2.5 5 3.06 5 3.75v1.875H3.125c-1.036 0-1.875.84-1.875 1.875v8.75c0 .69.56 1.25 1.25 1.25h15c.69 0 1.25-.56 1.25-1.25V7.5c0-1.036-.84-1.875-1.875-1.875zM6.25 3.75h7.5v1.875h-7.5V3.75zm11.25 12.5h-15v-5.625h5v3.125h5v-3.125h5v5.625zm-8.75-5.625h2.5V12.5h-2.5v-1.875zM2.5 9.375V7.5c0-.345.28-.625.625-.625h13.75c.345 0 .625.28.625.625v1.875h-15z"/>
                    </g>
                </g>
            </g>
        </g>
    </g>
</svg>
