<?xml version="1.0" encoding="UTF-8"?>
<svg width="60px" height="29px" viewBox="0 0 60 29" version="1.1" xmlns="http://www.w3.org/2000/svg" xmlns:xlink="http://www.w3.org/1999/xlink">
    <title>7A84F5E2-D35E-42FD-8270-6FDCCBB1ABA9</title>
    <defs>
        <polygon id="path-1" points="4.96052636 0.0346213479 6.88862996 1.96628891 2.06251589 6.79596694 0.13084833 4.86429938"></polygon>
        <linearGradient x1="108.530203%" y1="130.601625%" x2="-14.1162567%" y2="-38.2957628%" id="linearGradient-3">
            <stop stop-color="#0049FF" offset="0%"></stop>
            <stop stop-color="#FFFFFF" offset="100%"></stop>
        </linearGradient>
    </defs>
    <g id="4::Company-Dashboard" stroke="none" stroke-width="1" fill="none" fill-rule="evenodd">
        <g id="Company-Profile" transform="translate(-80.000000, -23.000000)">
            <g id="logo" transform="translate(80.000000, 23.000000)">
                <path d="M19.8374898,19.6695943 C17.2141346,22.305779 13.82086,22.2951757 11.5241679,21.4050026 C8.68722539,20.3098323 6.90364545,17.8680416 6.75388303,14.8834624 C6.74383186,14.7133046 6.74031395,14.5391073 6.74031395,14.3649101 C6.74031395,14.190208 6.74383186,14.0200501 6.75036512,13.8524168 C6.90364545,10.8617787 8.68370748,8.42352241 11.5206499,7.32835203 C12.3674609,7.00015436 13.3670497,6.79263244 14.4173969,6.79263244 C16.2175612,6.79263244 18.1810571,7.40207027 19.8344744,9.06325541 L25.1143535,14.3649101 L19.8374898,19.6695943 Z M34.6443694,14.3649101 L33.2512774,12.9617388 L29.8811204,9.5757487 L26.5109634,6.193293 L24.6012413,4.274094 C20.4943337,0.151426318 14.5505748,-1.10127895 9.09731309,1.00877962 C3.78376258,3.06481181 0.307063214,7.85447814 0.0201023381,13.5141208 C0.00703581832,13.7953609 0,14.0801355 0,14.3649101 C0,14.6527142 0.00703581832,14.9374888 0.0201023381,15.2252929 C0.307063214,20.881906 3.78728049,25.6715724 9.10032844,27.7240701 C10.8542574,28.4041967 12.6574372,28.7323944 14.4309659,28.7323944 C18.1840725,28.7323944 21.8145547,27.2555048 24.6042567,24.4557262 L27.8377177,21.2106086 L29.8811204,19.1540715 L34.6478873,14.3649101 L34.6443694,14.3649101 Z" id="Fill-60" fill="#004AFF"></path>
                <path d="M59.9798977,13.5037789 C59.6934393,7.84838801 56.2132221,3.06026134 50.8961537,1.00770224 C45.439374,-1.10190043 39.502651,0.154067849 35.3957433,4.27584479 L33.4890366,6.19109545 L30.1193821,9.57635402 L26.7487226,12.9616126 L25.3521127,14.3644807 L30.1193821,19.1521025 L34.8856465,14.3644807 L37.2491789,11.993891 L40.1625102,9.06397146 C42.7863679,6.42835634 46.1796426,6.43895736 48.4763347,7.32641405 C51.3127746,8.42134781 53.0963546,10.8585724 53.2466195,13.8455356 C53.2566707,14.0161615 53.259686,14.1898163 53.259686,14.3644807 C53.259686,14.5386403 53.2566707,14.7092662 53.2466195,14.882921 C53.0963546,17.8734178 51.3097593,20.3106424 48.4763347,21.4055762 C46.1761247,22.2965665 42.7863679,22.3036339 40.1625102,19.6680188 L36.7893379,16.2797314 L32.0255864,21.0673532 L35.3957433,24.4526118 C38.1824299,27.2553191 41.8159275,28.7323944 45.5695366,28.7323944 C47.3425628,28.7323944 49.1432298,28.4042676 50.8931383,27.7278217 C56.2097042,25.6717289 59.6899214,20.8836022 59.9798977,15.231745 C59.9929642,14.944003 60,14.6557563 60,14.3644807 C60,14.0767388 59.9929642,13.7915209 59.9798977,13.5037789" id="Fill-62" fill="#004AFF"></path>
                <polygon id="Fill-66" fill="#004AFF" points="27.8873239 21.1238558 29.5774648 19.4366197 27.8898137 21.1267606"></polygon>
                <polygon id="Fill-68" fill="#004AFF" points="34.6441453 14.3661972 34.6478873 14.3661972 29.5774648 19.4366197"></polygon>
                <polygon id="Fill-70" fill="#004AFF" points="37.1830986 11.8347594 34.6478873 14.3661972 37.1798642 11.8309859"></polygon>
                <polygon id="Fill-78" fill="#004AFF" points="27.0422535 14.3661972 33.8028169 14.3661972 33.8028169 0 27.0422535 0"></polygon>
                <g id="Group-88" transform="translate(22.816901, 7.605634)">
                    <mask id="mask-2" fill="white">
                        <use xlink:href="#path-1"></use>
                    </mask>
                    <g id="Clip-87"></g>
                    <polygon id="Fill-86" fill="url(#linearGradient-3)" mask="url(#mask-2)" points="4.96052636 0.0346213479 6.88862996 1.96628891 2.06251589 6.79596694 0.13084833 4.86429938"></polygon>
                </g>
            </g>
        </g>
    </g>
</svg>