<svg xmlns="http://www.w3.org/2000/svg" xmlns:xlink="http://www.w3.org/1999/xlink" width="158" height="33" viewBox="0 0 158 33">
    <defs>
        <linearGradient id="a10m108v8b" x1="108.53%" x2="-14.116%" y1="130.602%" y2="-38.296%">
            <stop offset="0%" stop-color="#0049FF"/>
            <stop offset="100%" stop-color="#FFF"/>
        </linearGradient>
        <path id="43gkbytsja" d="M2.609 0.018L3.623 1.034 1.085 3.574 0.069 2.558z"/>
    </defs>
    <g fill="none" fill-rule="evenodd">
        <g>
            <g>
                <path fill="#004AFF" d="M77.116 17.123c-1.398 1.398-3.206 1.393-4.43.92-1.511-.58-2.462-1.875-2.542-3.458-.005-.09-.007-.183-.007-.275 0-.093.002-.183.006-.272.081-1.586 1.03-2.879 2.541-3.46.451-.174.984-.284 1.544-.284.959 0 2.005.323 2.886 1.204l2.813 2.812-2.811 2.813zm7.889-2.813l-.742-.744-1.796-1.796-1.796-1.794-1.017-1.017c-2.188-2.187-5.355-2.851-8.26-1.732-2.832 1.09-4.684 3.63-4.837 6.632-.007.149-.011.3-.011.451 0 .153.004.304.01.456.154 3 2.008 5.54 4.839 6.629.934.36 1.895.534 2.84.534 2 0 3.934-.783 5.42-2.268l1.723-1.72 1.089-1.091 2.54-2.54h-.002z" transform="translate(-162 -26) translate(162 26)"/>
                <path fill="#004AFF" d="M98.377 13.853c-.152-3-2.007-5.54-4.84-6.628-2.907-1.119-6.07-.453-8.259 1.734l-1.015 1.016-1.796 1.795-1.796 1.796-.744.744 2.54 2.54 2.54-2.54 1.259-1.257 1.552-1.555c1.398-1.398 3.206-1.392 4.43-.921 1.511.58 2.462 1.873 2.542 3.458.005.09.007.182.007.275 0 .092-.002.183-.007.275-.08 1.586-1.032 2.88-2.542 3.46-1.226.472-3.032.476-4.43-.922l-1.797-1.797-2.538 2.54 1.795 1.795c1.485 1.487 3.421 2.27 5.421 2.27.945 0 1.904-.174 2.837-.533 2.832-1.09 4.687-3.63 4.841-6.628.007-.153.01-.305.01-.46 0-.153-.003-.304-.01-.457M95.623 32.333v-3.591c3.256 0 5.906-2.65 5.906-5.907V6.668h3.591v8.743c0 1.62 1.319 2.939 2.94 2.939 1.62 0 2.938-1.318 2.938-2.939V6.668h3.591v8.66c0 1.667 1.356 3.022 3.022 3.022h29.201c-4.533-3.351-7.478-8.734-7.478-14.79h3.591c0 8.155 6.635 14.79 14.79 14.79v3.591h-40.104c-1.885 0-3.588-.793-4.794-2.062-1.192 1.269-2.884 2.062-4.758 2.062-1.056 0-2.055-.252-2.939-.7v1.594c0 5.237-4.26 9.498-9.497 9.498" transform="translate(-162 -26) translate(162 26)"/>
                <path fill="#004AFF" d="M81.376 17.939L82.467 16.85 81.378 17.94zM85.005 14.31L85.007 14.31 82.467 16.85zM86.266 13.053L85.007 14.31 86.264 13.051zM91.106 4.996L94.874 4.996 94.874 1.405 91.106 1.405zM147.905 4.996L151.673 4.996 151.673 1.405 147.905 1.405zM33.362 4.996L37.131 4.996 37.131 1.405 33.362 1.405zM107.759 28.341L111.527 28.341 111.527 24.749 107.759 24.749zM86.34 4.996L90.109 4.996 90.109 1.405 86.34 1.405zM80.671 14.31L84.262 14.31 84.262 6.668 80.671 6.668zM40.197 21.896L43.789 21.896 43.789 0 40.197 0zM33.45 21.896L37.042 21.896 37.042 6.682 33.45 6.682zM0 21.958L3.592 21.958 3.592.508 0 .508zM30.293 21.896h-3.591v-8.692c0-1.631-1.327-2.958-2.958-2.958-1.63 0-2.958 1.327-2.958 2.958v8.692h-3.591V0h3.591v7.361c.889-.451 1.895-.706 2.958-.706 3.611 0 6.55 2.938 6.55 6.549v8.692z" transform="translate(-162 -26) translate(162 26)"/>
                <path fill="#004AFF" d="M47.85 18.411c-2.24 0-4.061-1.822-4.061-4.06 0-2.24 1.82-4.06 4.06-4.06 2.238 0 4.06 1.82 4.06 4.06 0 2.238-1.822 4.06-4.06 4.06m0-11.713c-1.49 0-2.882.428-4.06 1.168-2.156 1.355-3.591 3.755-3.591 6.485 0 2.728 1.435 5.127 3.591 6.484 1.178.74 2.57 1.167 4.06 1.167 4.218 0 7.652-3.433 7.652-7.651 0-4.22-3.434-7.653-7.652-7.653M56.77 15.115v6.78h3.592v-6.78c0-2.66 2.165-4.825 4.825-4.825V6.698c-4.64 0-8.416 3.776-8.416 8.417M14.04 6.944L7.55 12.123 14.036 17.302 14.036 21.895 3.592 13.56 1.793 12.123 3.592 10.686 14.04 2.347z" transform="translate(-162 -26) translate(162 26)"/>
                <g transform="translate(-162 -26) translate(162 26) translate(78.825 10.737)">
                    <mask id="avmfv56c2c" fill="#fff">
                        <use xlink:href="#43gkbytsja"/>
                    </mask>
                    <path fill="url(#a10m108v8b)" d="M2.609 0.018L3.623 1.034 1.085 3.574 0.069 2.558z" mask="url(#avmfv56c2c)"/>
                </g>
            </g>
        </g>
    </g>
</svg>
